<?xml version="1.0" encoding="utf-8"?>
<!-- Generator: Adobe Illustrator 19.1.0, SVG Export Plug-In . SVG Version: 6.00 Build 0)  -->
<svg version="1.1" id="Layer_1" xmlns="http://www.w3.org/2000/svg" xmlns:xlink="http://www.w3.org/1999/xlink" x="0px" y="0px"
	 viewBox="0 0 366.1 40.3" style="enable-background:new 0 0 366.1 40.3;" xml:space="preserve">
<style type="text/css">
	.st0{fill:#FFC200;}
</style>
<g>
	<path d="M53.1,6.4v28.7h-6.4V6.4h-6.3V0.7h19.1v5.7H53.1z"/>
	<path d="M75.1,35.1V21h-7.2v14.1h-6.4V0.7h6.4v14.5h7.2V0.7h6.4v34.3H75.1z"/>
	<path d="M85.5,35.1V0.7h16.4v5.5h-10v8.5h6.9v5.1h-6.9v9.5h10v5.7H85.5z"/>
	<path d="M124.2,6.4v28.7h-6.4V6.4h-6.3V0.7h19.1v5.7H124.2z"/>
	<path d="M133.2,35.1V0.7h16.4v5.5h-10v8.5h6.9v5.1h-6.9v9.5h10v5.7H133.2z"/>
	<path d="M166.2,35.1l-4-11.9l-4.4,11.9h-6.2l7.1-17.3l-6.7-17h6.7l3.8,11.9l4.1-11.9h6.3L166,17.2l6.9,17.8H166.2z"/>
	<path d="M188.6,35.1l-1.1-6.8h-6.1l-1.2,6.8h-6l6.9-34.3h7.2l6.9,34.3H188.6z M184.6,10l-2.3,13.2h4.4L184.6,10z"/>
	<path d="M205.5,35.8c-5.9,0-9.5-3.5-9.5-8.9v-2.4h5.9v2c0,2.5,1.2,3.9,3.5,3.9c2.3,0,3.4-1.3,3.4-3.5c0-2.7-1.8-4.6-5.2-7.1
		c-3.5-2.5-7.3-5.9-7.3-10.7c0-5,3.2-9.2,9.4-9.2c5.4,0,9,3.7,9,8.8V11h-5.8V9c0-2.1-1.1-3.7-3.2-3.7c-1.9,0-3.1,1.2-3.1,3.1
		c0,2.9,1.7,4.4,5.5,7.2c4.1,3,7,6.1,7,10.8C214.9,31.9,211.1,35.8,205.5,35.8z"/>
	<path d="M236.2,6.4v28.7h-6.4V6.4h-6.3V0.7h19.1v5.7H236.2z"/>
	<path d="M261,35.3c-2.5,0-3.5-2.1-3.5-5.1v-6.4c0-1.6-0.8-2.9-2.6-2.9h-3.4v14.2h-6.4V0.7h10.6c4.7,0,7.8,2.7,7.8,7.5V13
		c0,2.6-1.2,4.5-3.9,5.3c2.7,0.7,4,3,4,5.2v6.3c0,1.6,0.5,2.7,1.2,3.5v1.9H261z M257.3,8.5c0-1.5-0.7-2.5-2.3-2.5h-3.5v10.1h3.2
		c1.6,0,2.5-0.9,2.5-2.7V8.5z"/>
	<path d="M268.7,35.1V0.7h6.4v34.3H268.7z"/>
	<path d="M291.1,35.1h-10.8V0.7h10.7c4.7,0,7.6,2.5,7.6,7.3v3.7c0,2.9-1.1,5.2-4.1,5.8c3.1,0.8,4.2,2.9,4.2,5.8v4.5
		C298.7,32.6,295.7,35.1,291.1,35.1z M292.4,8.5c0-1.5-0.7-2.5-2.3-2.5h-3.5v9.4h3.2c1.7,0,2.5-0.9,2.5-2.7V8.5z M292.5,22.8
		c0-1.8-0.9-2.7-2.5-2.7h-3.3v9.7h3.6c1.6,0,2.2-0.9,2.2-2.5V22.8z"/>
	<path d="M312.2,35.8c-5.6,0-9.7-3.6-9.7-8.7V0.7h6.5v26.4c0,2,1.1,3.1,3.2,3.1c2.1,0,3.2-1.1,3.2-3.1V0.7h6.2v26.4
		C321.6,32.3,317.7,35.8,312.2,35.8z"/>
	<path d="M340.5,35.1l-6.7-14.6l-2.4-5.5v20.1h-5.9V0.7h5.5l6.3,14.9l2.3,5.5V0.7h5.8v34.3H340.5z"/>
	<path d="M349.7,35.1V0.7h16.4v5.5h-10v8.5h6.9v5.1h-6.9v9.5h10v5.7H349.7z"/>
</g>
<path class="st0" d="M0,0.4v40l8-5h26.9V0.4H0z M25,28.3l-7.7-5l-7.7,5l2.4-8.8L5,13.7l9.1-0.4l3.2-8.6l3.2,8.6l9.1,0.4l-7.2,5.7
	L25,28.3z"/>
</svg>
