<?xml version="1.0" encoding="utf-8"?>
<!-- Generator: Adobe Illustrator 19.0.1, SVG Export Plug-In . SVG Version: 6.00 Build 0)  -->
<svg version="1.1" id="Layer_1" xmlns="http://www.w3.org/2000/svg" xmlns:xlink="http://www.w3.org/1999/xlink" x="0px" y="0px"
	 width="400px" height="145.251px" viewBox="0 0 400 145.251" enable-background="new 0 0 400 145.251" xml:space="preserve">
<g id="XMLID_1381_">
	<polygon id="XMLID_2181_" fill="#FFFFFF" points="157.252,9.59 157.252,52.586 147.586,52.586 147.586,9.59 138.079,9.59 
		138.079,1.088 166.67,1.088 166.67,9.59 	"/>
	<polygon id="XMLID_2180_" fill="#FFFFFF" points="190.194,52.586 190.194,31.479 179.45,31.479 179.45,52.586 169.854,52.586 
		169.854,1.088 179.45,1.088 179.45,22.904 190.194,22.904 190.194,1.088 199.854,1.088 199.854,52.586 	"/>
	<polygon id="XMLID_2178_" fill="#FFFFFF" points="205.843,52.586 205.843,1.088 230.439,1.088 230.439,9.358 215.436,9.358 
		215.436,22.122 225.798,22.122 225.798,29.698 215.436,29.698 215.436,44.008 230.439,44.008 230.439,52.586 	"/>
	<polygon id="XMLID_2177_" fill="#FFFFFF" points="263.83,9.59 263.83,52.586 254.17,52.586 254.17,9.59 244.65,9.59 244.65,1.088 
		273.27,1.088 273.27,9.59 	"/>
	<polygon id="XMLID_2175_" fill="#FFFFFF" points="277.405,52.586 277.405,1.088 301.991,1.088 301.991,9.358 286.988,9.358 
		286.988,22.122 297.347,22.122 297.347,29.698 286.988,29.698 286.988,44.008 301.991,44.008 301.991,52.586 	"/>
	<polygon id="XMLID_2166_" fill="#FFFFFF" points="326.902,52.586 320.859,34.796 314.294,52.586 304.93,52.586 315.531,26.603 
		305.547,1.088 315.611,1.088 321.256,18.874 327.436,1.088 336.874,1.088 326.587,25.836 336.953,52.586 	"/>
	<path id="XMLID_2160_" fill="#FFFFFF" d="M360.483,52.586l-1.708-10.124h-9.122l-1.867,10.124h-8.957l10.363-51.498h10.751
		l10.264,51.498H360.483z M354.443,15l-3.47,19.882h6.571L354.443,15z"/>
	<path id="XMLID_2110_" fill="#FFFFFF" d="M385.748,53.747c-8.807,0-14.297-5.255-14.297-13.298v-3.556h8.81v3.015
		c0,3.779,1.778,5.878,5.255,5.878c3.413,0,5.111-2.007,5.111-5.188c0-4.094-2.634-6.877-7.735-10.665
		c-5.255-3.795-10.986-8.896-10.986-16.081C371.905,6.428,376.714,0,385.983,0c8.117,0,13.543,5.579,13.543,13.228v3.333h-8.756
		v-3.098c0-3.168-1.6-5.496-4.854-5.496c-2.789,0-4.644,1.772-4.644,4.634c0,4.335,2.545,6.581,8.283,10.751
		C395.658,27.917,400,32.56,400,39.52C400,47.793,394.265,53.747,385.748,53.747"/>
	<polygon id="XMLID_2109_" fill="#FFFFFF" points="161.53,74.323 161.53,126.918 149.695,126.918 149.695,74.323 138.079,74.323 
		138.079,63.915 173.073,63.915 173.073,74.323 	"/>
	<path id="XMLID_2106_" fill="#FFFFFF" d="M207.099,127.306c-4.628,0-6.425-3.788-6.425-9.275v-11.835
		c0-2.929-1.517-5.378-4.828-5.378h-6.142v26.1h-11.737V63.915h19.396c8.61,0,14.38,4.914,14.38,13.715v8.896
		c0,4.726-2.179,8.241-7.099,9.746c4.921,1.323,7.284,5.477,7.284,9.548v11.552c0,2.929,0.849,4.911,2.274,6.435v3.499H207.099z
		 M200.29,78.101c0-2.834-1.231-4.532-4.167-4.532h-6.419v18.534h5.957c3.037,0,4.628-1.609,4.628-5.006V78.101z"/>
	<rect id="XMLID_2098_" x="221.151" y="63.915" fill="#FFFFFF" width="11.727" height="63.003"/>
	<path id="XMLID_1460_" fill="#FFFFFF" d="M262.201,126.918h-19.863V63.915h19.666c8.629,0,13.922,4.634,13.922,13.343v6.81
		c0,5.379-2.093,9.459-7.481,10.592c5.674,1.508,7.755,5.391,7.755,10.706v8.219C276.199,122.385,270.814,126.918,262.201,126.918
		 M264.66,78.101c0-2.834-1.221-4.539-4.16-4.539h-6.339v17.312h5.865c3.028,0,4.634-1.603,4.634-4.914V78.101z M264.851,104.494
		c0-3.311-1.613-5.013-4.631-5.013h-6.059v17.802h6.616c2.926,0,4.074-1.622,4.074-4.558V104.494z"/>
	<path id="XMLID_1458_" fill="#FFFFFF" d="M300.922,128.343c-10.223,0-17.793-6.523-17.793-15.992V63.922h11.912v48.429
		c0,3.69,2.086,5.779,5.881,5.779c3.871,0,5.957-2.09,5.957-5.779V63.922h11.441v48.429
		C318.321,121.819,311.136,128.343,300.922,128.343"/>
	<polygon id="XMLID_1418_" fill="#FFFFFF" points="352.907,126.918 340.7,100.051 336.244,90.029 336.244,126.918 325.461,126.918 
		325.461,63.915 335.598,63.915 347.227,91.253 351.4,101.282 351.4,63.915 361.985,63.915 361.985,126.918 	"/>
	<polygon id="XMLID_1417_" fill="#FFFFFF" points="369.898,126.918 369.898,63.915 399.994,63.915 399.994,74.036 381.638,74.036 
		381.638,89.647 394.307,89.647 394.307,98.909 381.638,98.909 381.638,116.419 399.994,116.419 399.994,126.918 	"/>
	<path id="XMLID_1382_" fill="#FBC116" d="M126.027,127.134H28.985L0,145.251V1.088h126.027V127.134z M50.983,47.704L17.98,49.24
		l25.805,20.649l-8.76,31.861l27.608-18.158l27.624,18.158l-8.76-31.861l25.811-20.649l-33.012-1.536L62.634,16.791L50.983,47.704z"
		/>
</g>
</svg>
