<svg xmlns="http://www.w3.org/2000/svg" width="366.1" height="40.3" viewBox="0 0 366.1 40.3"><g fill="#fff"><path d="M53.1 6.4v28.7h-6.4V6.4h-6.3V.7h19.1v5.7h-6.4zM75.1 35.1V21h-7.2v14.1h-6.4V.7h6.4v14.5h7.2V.7h6.4V35h-6.4zM85.5 35.1V.7h16.4v5.5h-10v8.5h6.9v5.1h-6.9v9.5h10V35H85.5zM124.2 6.4v28.7h-6.4V6.4h-6.3V.7h19.1v5.7h-6.4zM133.2 35.1V.7h16.4v5.5h-10v8.5h6.9v5.1h-6.9v9.5h10V35h-16.4zM166.2 35.1l-4-11.9-4.4 11.9h-6.2l7.1-17.3-6.7-17h6.7l3.8 11.9L166.6.8h6.3L166 17.2l6.9 17.8h-6.7zM188.6 35.1l-1.1-6.8h-6.1l-1.2 6.8h-6L181.1.8h7.2l6.9 34.3h-6.6zm-4-25.1l-2.3 13.2h4.4L184.6 10zM205.5 35.8c-5.9 0-9.5-3.5-9.5-8.9v-2.4h5.9v2c0 2.5 1.2 3.9 3.5 3.9s3.4-1.3 3.4-3.5c0-2.7-1.8-4.6-5.2-7.1-3.5-2.5-7.3-5.9-7.3-10.7 0-5 3.2-9.2 9.4-9.2 5.4 0 9 3.7 9 8.8V11h-5.8V9c0-2.1-1.1-3.7-3.2-3.7-1.9 0-3.1 1.2-3.1 3.1 0 2.9 1.7 4.4 5.5 7.2 4.1 3 7 6.1 7 10.8-.2 5.5-4 9.4-9.6 9.4zM236.2 6.4v28.7h-6.4V6.4h-6.3V.7h19.1v5.7h-6.4zM261 35.3c-2.5 0-3.5-2.1-3.5-5.1v-6.4c0-1.6-.8-2.9-2.6-2.9h-3.4v14.2h-6.4V.7h10.6c4.7 0 7.8 2.7 7.8 7.5V13c0 2.6-1.2 4.5-3.9 5.3 2.7.7 4 3 4 5.2v6.3c0 1.6.5 2.7 1.2 3.5v1.9H261zm-3.7-26.8c0-1.5-.7-2.5-2.3-2.5h-3.5v10.1h3.2c1.6 0 2.5-.9 2.5-2.7V8.5zM268.7 35.1V.7h6.4V35h-6.4zM291.1 35.1h-10.8V.7H291c4.7 0 7.6 2.5 7.6 7.3v3.7c0 2.9-1.1 5.2-4.1 5.8 3.1.8 4.2 2.9 4.2 5.8v4.5c0 4.8-3 7.3-7.6 7.3zm1.3-26.6c0-1.5-.7-2.5-2.3-2.5h-3.5v9.4h3.2c1.7 0 2.5-.9 2.5-2.7V8.5zm.1 14.3c0-1.8-.9-2.7-2.5-2.7h-3.3v9.7h3.6c1.6 0 2.2-.9 2.2-2.5v-4.5zM312.2 35.8c-5.6 0-9.7-3.6-9.7-8.7V.7h6.5v26.4c0 2 1.1 3.1 3.2 3.1s3.2-1.1 3.2-3.1V.7h6.2v26.4c0 5.2-3.9 8.7-9.4 8.7zM340.5 35.1l-6.7-14.6-2.4-5.5v20.1h-5.9V.7h5.5l6.3 14.9 2.3 5.5V.7h5.8V35h-4.9zM349.7 35.1V.7h16.4v5.5h-10v8.5h6.9v5.1h-6.9v9.5h10V35h-16.4z"/></g><path fill="#FFC200" d="M0 .4v40l8-5h26.9V.4H0zm25 27.9l-7.7-5-7.7 5 2.4-8.8-7-5.8 9.1-.4 3.2-8.6 3.2 8.6 9.1.4-7.2 5.7 2.6 8.9z"/></svg>